<svg width="10" height="21" viewBox="0 0 10 21" fill="none" xmlns="http://www.w3.org/2000/svg">
<path d="M9.62343 0.504161L7.22488 0.5C4.5302 0.5 2.78878 2.4319 2.78878 5.42203V7.69141H0.377148C0.168755 7.69141 0 7.87409 0 8.09943V11.3875C0 11.6128 0.168947 11.7953 0.377148 11.7953H2.78878V20.0922C2.78878 20.3175 2.95753 20.5 3.16593 20.5H6.31242C6.52081 20.5 6.68957 20.3173 6.68957 20.0922V11.7953H9.50932C9.71772 11.7953 9.88647 11.6128 9.88647 11.3875L9.88763 8.09943C9.88763 7.99123 9.84779 7.88762 9.77718 7.81105C9.70656 7.73448 9.61034 7.69141 9.51029 7.69141H6.68957V5.76763C6.68957 4.84298 6.89334 4.37358 8.00727 4.37358L9.62304 4.37295C9.83125 4.37295 10 4.19027 10 3.96514V0.911972C10 0.687052 9.83144 0.504577 9.62343 0.504161Z" fill="#2DA2E1"/>
</svg>
