<svg width="18" height="19" viewBox="0 0 18 19" fill="none" xmlns="http://www.w3.org/2000/svg">
<g clip-path="url(#clip0_48_88)">
<path d="M17.9825 5.79205C17.9403 4.83564 17.7857 4.17812 17.5641 3.60836C17.3356 3.00359 16.9839 2.46213 16.5232 2.01201C16.0731 1.55489 15.5281 1.19969 14.9303 0.974702C14.3573 0.753147 13.7032 0.598484 12.7468 0.556316C11.7832 0.510576 11.4773 0.5 9.03351 0.5C6.58968 0.5 6.28379 0.510576 5.32381 0.552745C4.3674 0.594913 3.70988 0.749713 3.14027 0.971131C2.53535 1.19969 1.9939 1.55132 1.54378 2.01201C1.08666 2.46213 0.731596 3.00716 0.50647 3.60493C0.284915 4.17812 0.130253 4.83207 0.0880846 5.78848C0.0423452 6.75203 0.0317688 7.05792 0.0317688 9.50176C0.0317688 11.9456 0.0423452 12.2515 0.0845134 13.2115C0.126682 14.1679 0.281481 14.8254 0.503036 15.3951C0.731596 15.9999 1.08666 16.5414 1.54378 16.9915C1.9939 17.4486 2.53892 17.8038 3.13669 18.0288C3.70988 18.2504 4.36383 18.405 5.32038 18.4472C6.28022 18.4895 6.58625 18.4999 9.03008 18.4999C11.4739 18.4999 11.7798 18.4895 12.7398 18.4472C13.6962 18.405 14.3537 18.2504 14.9233 18.0288C16.133 17.5611 17.0894 16.6047 17.5571 15.3951C17.7785 14.822 17.9333 14.1679 17.9755 13.2115C18.0177 12.2515 18.0282 11.9456 18.0282 9.50176C18.0282 7.05792 18.0247 6.75203 17.9825 5.79205ZM16.3616 13.1411C16.3228 14.0202 16.1752 14.4949 16.0521 14.8114C15.7497 15.5956 15.1273 16.2179 14.3431 16.5204C14.0267 16.6434 13.5485 16.7911 12.6729 16.8297C11.7235 16.872 11.4387 16.8824 9.03708 16.8824C6.63542 16.8824 6.34711 16.872 5.40114 16.8297C4.52206 16.7911 4.04736 16.6434 3.7309 16.5204C3.34067 16.3761 2.98547 16.1476 2.69716 15.8487C2.39827 15.5568 2.16971 15.2052 2.02549 14.815C1.90242 14.4985 1.75476 14.0202 1.71616 13.1447C1.67386 12.1953 1.66342 11.9104 1.66342 9.50876C1.66342 7.10709 1.67386 6.81878 1.71616 5.87295C1.75476 4.99387 1.90242 4.51917 2.02549 4.2027C2.16971 3.81234 2.39827 3.45727 2.70073 3.16883C2.99247 2.86994 3.3441 2.64138 3.73447 2.49729C4.05093 2.37422 4.52921 2.22656 5.40471 2.18783C6.35411 2.14566 6.63899 2.13508 9.04052 2.13508C11.4458 2.13508 11.7305 2.14566 12.6765 2.18783C13.5555 2.22656 14.0302 2.37422 14.3467 2.49729C14.7369 2.64138 15.0921 2.86994 15.3804 3.16883C15.6793 3.46071 15.9079 3.81234 16.0521 4.2027C16.1752 4.51917 16.3228 4.99731 16.3616 5.87295C16.4037 6.82235 16.4143 7.10709 16.4143 9.50876C16.4143 11.9104 16.4037 12.1917 16.3616 13.1411Z" fill="#2DA2E1"/>
<path d="M9.03351 4.87793C6.48075 4.87793 4.40956 6.94898 4.40956 9.50188C4.40956 12.0548 6.48075 14.1258 9.03351 14.1258C11.5864 14.1258 13.6575 12.0548 13.6575 9.50188C13.6575 6.94898 11.5864 4.87793 9.03351 4.87793ZM9.03351 12.5013C7.37741 12.5013 6.03407 11.1581 6.03407 9.50188C6.03407 7.84564 7.37741 6.50244 9.03351 6.50244C10.6897 6.50244 12.033 7.84564 12.033 9.50188C12.033 11.1581 10.6897 12.5013 9.03351 12.5013Z" fill="#2DA2E1"/>
<path fill-rule="evenodd" clip-rule="evenodd" d="M4.26956 9.50174C4.26956 6.87152 6.40343 4.73779 9.03351 4.73779C11.6637 4.73779 13.7975 6.87153 13.7975 9.50174C13.7975 12.132 11.6637 14.2657 9.03351 14.2657C6.40343 14.2657 4.26956 12.132 4.26956 9.50174ZM6.17407 9.50174C6.17407 11.0807 7.45473 12.3612 9.03351 12.3612C10.6124 12.3612 11.893 11.0807 11.893 9.50174C11.893 7.92283 10.6124 6.6423 9.03351 6.6423C7.45473 6.6423 6.17407 7.92283 6.17407 9.50174ZM4.40956 9.50174C4.40956 6.94885 6.48075 4.87779 9.03351 4.87779C11.5864 4.87779 13.6575 6.94885 13.6575 9.50174C13.6575 12.0546 11.5864 14.1257 9.03351 14.1257C6.48075 14.1257 4.40956 12.0546 4.40956 9.50174ZM6.03407 9.50174C6.03407 11.158 7.37741 12.5012 9.03351 12.5012C10.6897 12.5012 12.033 11.158 12.033 9.50174C12.033 7.84551 10.6897 6.5023 9.03351 6.5023C7.37741 6.5023 6.03407 7.84551 6.03407 9.50174Z" fill="#2DA2E1"/>
<path d="M14.9202 4.69521C14.9202 5.29133 14.4369 5.77469 13.8406 5.77469C13.2445 5.77469 12.7611 5.29133 12.7611 4.69521C12.7611 4.09894 13.2445 3.61572 13.8406 3.61572C14.4369 3.61572 14.9202 4.09894 14.9202 4.69521Z" fill="#2DA2E1"/>
</g>
<defs>
<clipPath id="clip0_48_88">
<rect width="18" height="18" fill="white" transform="translate(0 0.5)"/>
</clipPath>
</defs>
</svg>
