<svg width="24" height="25" viewBox="0 0 24 25" fill="none" xmlns="http://www.w3.org/2000/svg">
<g clip-path="url(#clip0_48_36)">
<path d="M18 4.5H6C4.89543 4.5 4 5.39543 4 6.5V18.5C4 19.6046 4.89543 20.5 6 20.5H18C19.1046 20.5 20 19.6046 20 18.5V6.5C20 5.39543 19.1046 4.5 18 4.5Z" stroke="#2DA2E1" stroke-width="1.5" stroke-linecap="round" stroke-linejoin="round"/>
<path d="M8 11.5V16.5" stroke="#2DA2E1" stroke-width="1.5" stroke-linecap="round" stroke-linejoin="round"/>
<path d="M8 8.5V8.51" stroke="#2DA2E1" stroke-width="1.5" stroke-linecap="round" stroke-linejoin="round"/>
<path d="M12 16.5V11.5" stroke="#2DA2E1" stroke-width="1.5" stroke-linecap="round" stroke-linejoin="round"/>
<path d="M16 16.5V13.5C16 12.9696 15.7893 12.4609 15.4142 12.0858C15.0391 11.7107 14.5304 11.5 14 11.5C13.4696 11.5 12.9609 11.7107 12.5858 12.0858C12.2107 12.4609 12 12.9696 12 13.5" stroke="#2DA2E1" stroke-width="1.5" stroke-linecap="round" stroke-linejoin="round"/>
</g>
<defs>
<clipPath id="clip0_48_36">
<rect width="24" height="24" fill="white" transform="translate(0 0.5)"/>
</clipPath>
</defs>
</svg>
