<svg width="20" height="21" viewBox="0 0 20 21" fill="none" xmlns="http://www.w3.org/2000/svg">
<g clip-path="url(#clip0_48_101)">
<path d="M7.50001 10.5002C6.84074 10.5002 6.19627 10.6957 5.64811 11.0619C5.09994 11.4282 4.6727 11.9488 4.42041 12.5579C4.16812 13.167 4.1021 13.8372 4.23072 14.4838C4.35934 15.1304 4.67681 15.7243 5.14298 16.1905C5.60916 16.6567 6.2031 16.9742 6.84971 17.1028C7.49631 17.2314 8.16653 17.1654 8.77562 16.9131C9.38471 16.6608 9.9053 16.2336 10.2716 15.6854C10.6378 15.1372 10.8333 14.4928 10.8333 13.8335V3.8335C10.8333 4.93856 11.2723 5.99837 12.0537 6.77977C12.8351 7.56118 13.8949 8.00016 15 8.00016" stroke="#2DA2E1" stroke-width="1.66667" stroke-linecap="round" stroke-linejoin="round"/>
</g>
<defs>
<clipPath id="clip0_48_101">
<rect width="20" height="20" fill="white" transform="translate(0 0.5)"/>
</clipPath>
</defs>
</svg>
