<svg width="813" height="813" viewBox="0 0 813 813" fill="none" xmlns="http://www.w3.org/2000/svg">
<path d="M451.472 10.15V70.238C451.472 77.546 462.028 89.32 469.336 92.568C486.794 100.282 511.56 103.936 531.454 112.056C545.664 118.146 578.956 140.07 589.918 141.288C615.09 144.13 635.796 108.808 653.66 94.598H655.69L718.62 157.528C700.35 181.076 660.156 198.534 675.178 233.45C682.892 251.72 696.29 269.178 704.41 289.884C710.5 305.312 714.154 330.078 720.244 342.664C723.086 348.348 736.89 360.528 742.574 360.528H802.662V451.878H742.574C742.574 451.878 729.988 457.562 728.364 458.78C718.214 466.9 710.5 507.094 704.41 522.522C696.29 543.228 682.892 560.686 675.178 578.956C660.156 613.872 700.35 631.33 718.62 654.878L655.69 717.808H653.66C630.518 699.538 613.466 660.156 578.55 675.178C560.28 682.892 542.822 696.29 522.116 704.41C506.688 710.5 468.118 717.402 459.592 727.552C457.968 729.582 451.878 740.544 451.878 742.574V802.662H360.528V742.574C360.528 735.266 349.972 723.492 342.664 720.244C323.582 711.718 298.41 708.064 276.892 698.726C263.494 693.042 233.044 672.336 222.488 671.118C199.346 668.682 175.798 705.628 157.934 718.62L95.004 655.69V653.66C105.56 640.262 128.296 623.21 136.822 609.812C149.408 590.324 136.01 579.362 127.89 563.528C122.612 553.378 116.522 542.01 112.056 531.86C103.936 512.778 99.064 482.734 90.944 467.306C88.102 461.622 76.328 451.878 70.238 451.878H10.15V360.528H70.238C77.546 360.528 89.32 349.972 92.568 342.664C100.282 325.206 103.936 300.44 112.056 280.546C118.146 266.336 140.07 233.044 141.288 222.082C143.724 199.346 107.996 175.798 94.598 158.34V156.31L157.528 93.38C160.776 93.38 195.286 131.544 202.188 136.01C213.556 143.318 223.3 141.694 234.668 136.01C257.404 125.048 274.456 112.868 299.628 103.936C316.68 97.846 345.506 95.004 355.25 79.576C356.062 77.952 360.122 69.832 360.122 69.02V10.15H451.472Z" stroke="#7CC2E6" stroke-opacity="0.2" stroke-width="20" stroke-miterlimit="10"/>
</svg>
