<svg width="102" height="103" viewBox="0 0 102 103" fill="none" xmlns="http://www.w3.org/2000/svg">
<g clip-path="url(#clip0_37_412)">
<path d="M51 11.2937C73.1694 11.2937 91.2063 29.3306 91.2063 51.5C91.2063 73.6694 73.1694 91.7063 51 91.7063C28.8306 91.7063 10.7937 73.6694 10.7937 51.5C10.7937 29.3306 28.8306 11.2937 51 11.2937ZM51 0.5C22.8344 0.5 0 23.3344 0 51.5C0 79.6656 22.8344 102.5 51 102.5C79.1656 102.5 102 79.6656 102 51.5C102 23.3344 79.1656 0.5 51 0.5Z" fill="#0C415D"/>
<path d="M71.9653 81.9181C69.7931 83.5218 66.7199 85.5598 62.8047 87.4799C58.9833 89.3517 55.9557 90.3305 52.55 91.4086C52.247 91.5024 51.9466 91.6016 51.6516 91.6955C47.6801 92.9398 44.4272 93.8837 40.1178 94.4576C30.807 95.6966 24.3817 94.0822 21.2737 92.9398C18.1147 90.6738 15.2212 88.0458 12.6602 85.1254C13.4512 85.6644 14.473 86.2919 15.7039 86.8739C16.4386 87.2252 18.3882 88.1128 21.086 88.6947C23.596 89.2337 26.0283 89.3571 29.4179 89.1345C30.7856 89.0487 32.8075 88.9119 35.3256 88.5231C35.8298 88.4426 36.3554 88.3568 36.9025 88.2576C37.4147 88.1637 39.6163 87.7454 43.0247 86.7746C44.4996 86.3563 50.5656 84.5864 58.6615 80.824C60.5333 79.9605 62.0565 79.1909 63.0943 78.6572C66.0522 79.7433 69.0101 80.8294 71.9653 81.9155V81.9181Z" fill="#7CC2E6"/>
<path d="M11.0834 19.7546C10.8259 21.2295 10.7482 23.1415 11.3569 25.1849C11.6412 26.1423 11.9791 27.156 12.8774 28.0892C13.9474 29.1994 15.2722 29.4676 15.9989 29.6285C20.2762 30.5751 25.9184 27.9363 26.8087 27.5099C29.3429 26.5687 33.1803 24.7559 36.8435 21.2563C38.8628 19.3282 40.319 17.3732 41.3514 15.7294C45.2881 14.6862 49.2248 13.6457 53.1642 12.6025C51.0376 16.7618 48.6616 19.8243 46.8381 21.8731C44.3683 24.6486 42.1479 26.4265 41.4131 27.0031C40.5174 27.7057 37.3772 30.0388 32.5555 32.2538C25.972 35.2761 20.8152 35.7132 18.7664 35.8097C13.9876 36.0377 12.3411 35.0749 11.4561 34.3402C9.64333 32.8357 9.1499 30.5617 8.89783 29.4515C8.78788 28.9741 8.24618 26.4534 9.2089 23.4016C9.73183 21.7444 10.5122 20.5215 11.0861 19.7546H11.0834Z" fill="#0C415D"/>
<path d="M71.9654 42.2347C69.871 44.4497 67.1008 47.1716 63.6415 50.0357C62.5339 50.9555 59.1738 53.6988 53.9204 57.0885C48.0931 60.8508 43.7327 63.6639 37.3718 66.0533C33.6577 67.4504 26.916 69.9095 18.096 69.7298C17.0099 69.7084 16.0096 69.6494 15.0871 69.5636C10.2869 69.1104 7.61064 67.8929 6.32344 67.2332C4.94238 66.5199 3.12152 65.5867 1.56616 64.0876C0.826015 61.1726 0.335269 58.1665 0.126099 55.0799C0.737519 56.0801 1.59297 57.1743 2.77291 58.1531C3.28242 58.5768 5.38485 60.2099 10.169 61.0815C10.7938 61.1968 11.4132 61.2826 12.0113 61.3469C15.594 61.7438 18.6082 61.3335 20.8769 60.9447C29.5842 59.4483 36.2831 56.6487 38.7421 55.576C48.9513 51.0922 55.457 45.8254 57.6372 43.9697C58.9888 42.8193 60.0775 41.811 60.8257 41.0977C64.5398 41.4731 68.2512 41.8539 71.9654 42.2347Z" fill="#2DA2E1"/>
<path d="M102 51.4331C102 74.8334 86.2506 94.549 64.7704 100.548C65.8645 98.0432 66.964 95.5332 68.0581 93.0285C72.7269 91.1084 81.9813 86.5737 89.9888 76.8688C98.6023 66.429 101.142 55.6058 101.992 50.6045C102 50.878 102 51.1596 102 51.4331Z" fill="#2DA2E1"/>
<path d="M74.5129 11.4974C74.4191 13.7205 73.7996 15.8015 72.8878 17.7216C71.1957 21.299 68.5194 24.3051 66.5135 26.5657C64.167 29.1991 61.9815 31.0844 60.1874 32.6397C58.3022 34.2729 56.1006 36.0294 53.4243 37.9065C47.7257 41.9076 42.9416 44.3399 39.2409 46.1956C34.5936 48.542 30.5282 50.2476 27.463 51.4329C28.8441 47.7134 30.2251 43.9859 31.6089 40.2664C32.1479 40.0519 33.0489 39.6979 34.1404 39.2366C38.2138 37.5391 42.9631 35.5172 48.4524 32.0632C53.1373 29.1133 56.0362 26.5577 59.3239 23.6722C63.6066 19.9098 65.347 16.598 66.3901 14.5706C66.425 14.4982 66.4706 14.4205 66.5054 14.34C67.1088 13.1172 67.6291 11.476 67.4762 9.42451C67.4413 8.81309 67.3394 7.61975 66.6637 6.27355C65.7787 4.53851 64.4406 3.59724 63.7219 3.11454C61.3915 1.55381 59.2462 1.48945 59.281 1.17301C59.281 1.15156 59.2944 1.13815 59.3159 1.1167C63.7701 1.83539 68.0286 3.14672 72.0243 4.95149C72.5848 5.4181 73.0675 5.95175 73.4858 6.64362C73.8747 7.29795 74.6229 8.79432 74.5156 11.5001L74.5129 11.4974Z" fill="#7CC2E6"/>
<path d="M91.1768 49.899C90.7585 50.5909 90.4206 51.1138 90.2114 51.4329C84.9527 57.3192 76.3445 65.5438 63.8104 72.3365C53.5289 77.9117 44.0089 80.6685 37.0205 82.1219C38.9862 78.1209 40.9492 74.1198 42.9068 70.1188C45.1889 69.5717 48.5624 68.6358 52.5045 67.067C62.1102 63.2403 68.5355 58.2229 72.7967 54.8493C76.5805 51.8486 79.3292 49.6469 82.3944 45.906C83.8907 44.0771 86.4383 40.6901 88.3101 36.4504C88.7928 35.3563 89.2299 34.1978 89.592 32.9964C90.2838 30.709 90.5493 28.7299 90.6485 27.9093C90.8792 25.9436 91.0937 24.1684 90.6566 21.9506C90.2597 19.9501 89.4981 18.3894 88.8733 17.3462C88.9081 17.3596 88.9457 17.3811 88.9805 17.3971C92.2629 21.0523 95.017 25.182 97.1328 29.6738C97.1328 29.7033 97.1409 29.7301 97.1409 29.7596C97.8596 37.7617 93.3839 46.2224 91.1768 49.899Z" fill="#0C415D"/>
</g>
<defs>
<clipPath id="clip0_37_412">
<rect width="102" height="102" fill="white" transform="translate(0 0.5)"/>
</clipPath>
</defs>
</svg>
