<svg width="252" height="75" viewBox="0 0 252 75" fill="none" xmlns="http://www.w3.org/2000/svg">
<g clip-path="url(#clip0_37_377)">
<path d="M37.3868 7.93656C53.6386 7.93656 66.861 21.199 66.861 37.5C66.861 53.801 53.6386 67.0634 37.3868 67.0634C21.135 67.0634 7.9126 53.801 7.9126 37.5C7.9126 21.199 21.135 7.93656 37.3868 7.93656ZM37.3868 0C16.7393 0 0 16.79 0 37.5C0 58.21 16.7393 75 37.3868 75C58.0342 75 74.7736 58.21 74.7736 37.5C74.7736 16.79 58.0342 0 37.3868 0Z" fill="#0C415D"/>
<path d="M114.804 23.1786C112.911 21.3646 110.067 20.4595 106.265 20.4595H84.5911V54.5423H95.136V41.8912H105.105C109.341 41.8912 112.489 40.923 114.553 38.9867C116.615 37.0504 117.649 34.3628 117.649 30.918C117.649 27.4732 116.7 24.9927 114.806 23.1767L114.804 23.1786ZM106.196 33.929C105.484 34.5422 104.328 34.8873 102.724 34.9661C100.192 34.9721 97.666 34.9819 95.134 34.9878V27.3845C97.666 27.3845 100.192 27.3904 102.724 27.3904C104.482 27.4377 105.695 27.8084 106.353 28.5006C107.065 29.2459 107.425 30.151 107.425 31.2197C107.425 32.2884 107.014 33.225 106.196 33.929Z" fill="#0C415D"/>
<path d="M136.567 20.4576H125.109L112.339 54.5404H123.063L124.72 48.9168H136.641L138.34 54.5404H149.337L136.567 20.4576ZM126.999 41.5481L130.712 29.2953L134.463 41.5481H126.999Z" fill="#0C415D"/>
<path d="M176.645 20.4576L171.358 41.1972L166.031 20.4576H152.221V54.5404H160.819V28.546L167.434 54.5404H175.219L181.844 28.546V54.5404H190.443V20.4576H176.645Z" fill="#0C415D"/>
<path d="M218.928 20.4576L211.379 44.985L203.73 20.4576H192.753L205.586 54.5404H216.968L229.585 20.4576H218.924H218.928Z" fill="#0C415D"/>
<path d="M233.25 20.6962L220.57 54.5404H231.294C232.359 50.1413 233.425 45.7442 234.49 41.345H243.319C244.402 45.7442 245.485 50.1413 246.568 54.5404C248.377 54.5464 250.191 54.5503 252.002 54.5562V20.6962H233.25ZM235.227 36.6423L238.941 24.3894L242.692 36.6423H235.227Z" fill="#0C415D"/>
<path d="M52.7559 59.8663C51.1635 61.0455 48.9107 62.544 46.0405 63.9559C43.2391 65.3322 41.0197 66.0519 38.523 66.8446C38.3009 66.9136 38.0807 66.9865 37.8645 67.0556C34.953 67.9705 32.5684 68.6646 29.4093 69.0865C22.5838 69.9975 17.8736 68.8105 15.5952 67.9705C13.2794 66.3043 11.1582 64.3719 9.28084 62.2246C9.86077 62.6209 10.6098 63.0823 11.5121 63.5102C12.0507 63.7685 13.4799 64.4212 15.4576 64.8491C17.2976 65.2454 19.0807 65.3361 21.5655 65.1725C22.5681 65.1094 24.0504 65.0088 25.8963 64.7229C26.2659 64.6637 26.6512 64.6006 27.0522 64.5277C27.4277 64.4587 29.0417 64.1511 31.5403 63.4373C32.6215 63.1297 37.0683 61.8283 43.0032 59.0618C44.3754 58.4269 45.492 57.861 46.2528 57.4686C48.4212 58.2672 50.5895 59.0658 52.7559 59.8643V59.8663Z" fill="#7CC2E6"/>
<path d="M8.12491 14.1576C7.93619 15.2421 7.87918 16.648 8.32543 18.1506C8.53381 18.8545 8.78151 19.5998 9.44008 20.286C10.2245 21.1024 11.1956 21.2996 11.7283 21.4179C14.8639 22.1139 19.0001 20.1736 19.6527 19.8601C21.5105 19.168 24.3236 17.8351 27.009 15.2619C28.4893 13.8441 29.5567 12.4067 30.3136 11.1979C33.1995 10.4309 36.0854 9.66584 38.9732 8.8988C37.4143 11.9571 35.6725 14.2089 34.3358 15.7154C32.5252 17.7562 30.8975 19.0635 30.3588 19.4875C29.7022 20.0041 27.4002 21.7196 23.8656 23.3483C19.0394 25.5705 15.259 25.8919 13.7571 25.9629C10.2539 26.1305 9.0469 25.4226 8.39817 24.8823C7.06924 23.7762 6.70753 22.1041 6.52273 21.2877C6.44213 20.9367 6.04503 19.0832 6.75077 16.8393C7.13412 15.6207 7.70618 14.7216 8.12688 14.1576H8.12491Z" fill="#0C415D"/>
<path d="M52.7559 30.6874C51.2205 32.3161 49.1898 34.3175 46.6539 36.4234C45.8419 37.0997 43.3787 39.1169 39.5276 41.6093C35.2558 44.3757 32.0593 46.4442 27.3963 48.201C24.6735 49.2284 19.7314 51.0365 13.2656 50.9044C12.4695 50.8886 11.7362 50.8452 11.0599 50.7822C7.54105 50.4489 5.57911 49.5537 4.6355 49.0686C3.62308 48.5441 2.28826 47.8579 1.14806 46.7557C0.605482 44.6123 0.245729 42.4019 0.092392 40.1324C0.540609 40.8679 1.16772 41.6724 2.0327 42.3921C2.40621 42.7036 3.94745 43.9045 7.45455 44.5453C7.91259 44.6301 8.36671 44.6932 8.8051 44.7405C11.4315 45.0323 13.6411 44.7306 15.3042 44.4447C21.6874 43.3445 26.5981 41.2859 28.4008 40.4972C35.8849 37.2003 40.654 33.3276 42.2523 31.9631C43.2431 31.1172 44.0412 30.3758 44.5897 29.8513C47.3124 30.1274 50.0332 30.4074 52.7559 30.6874Z" fill="#2DA2E1"/>
<path d="M74.7735 37.4507C74.7735 54.6568 63.228 69.1536 47.4815 73.5645C48.2835 71.7228 49.0896 69.8772 49.8916 68.0355C53.3142 66.6237 60.0984 63.2894 65.9685 56.1534C72.2828 48.4771 74.1445 40.5189 74.7676 36.8414C74.7735 37.0425 74.7735 37.2496 74.7735 37.4507Z" fill="#2DA2E1"/>
<path d="M54.6235 8.08642C54.5547 9.72106 54.1005 11.2512 53.4321 12.663C52.1917 15.2934 50.2298 17.5038 48.7593 19.1661C47.0392 21.1024 45.437 22.4886 44.1218 23.6322C42.7398 24.8331 41.1258 26.1246 39.1639 27.5049C34.9865 30.4468 31.4794 32.2353 28.7665 33.5998C25.3596 35.3251 22.3794 36.5792 20.1324 37.4507C21.1448 34.7158 22.1572 31.975 23.1716 29.2401C23.5668 29.0823 24.2273 28.822 25.0274 28.4829C28.0135 27.2347 31.4951 25.748 35.5192 23.2083C38.9536 21.0393 41.0787 19.1601 43.4888 17.0385C46.6283 14.272 47.9041 11.8368 48.6689 10.3461C48.6944 10.2929 48.7278 10.2357 48.7534 10.1765C49.1957 9.2774 49.5771 8.07065 49.465 6.56221C49.4395 6.11263 49.3648 5.23518 48.8694 4.24533C48.2206 2.96956 47.2397 2.27745 46.7128 1.92252C45.0045 0.774928 43.4318 0.727604 43.4574 0.49493C43.4574 0.479155 43.4672 0.469296 43.4829 0.453522C46.7482 0.981969 49.87 1.94619 52.7991 3.27322C53.21 3.61632 53.5639 4.00871 53.8705 4.51744C54.1556 4.99856 54.7041 6.09883 54.6254 8.0884L54.6235 8.08642Z" fill="#7CC2E6"/>
<path d="M66.8393 36.3228C66.5326 36.8316 66.285 37.2161 66.1316 37.4507C62.2766 41.7788 55.9661 47.8264 46.7777 52.821C39.2406 56.9204 32.2618 58.9474 27.1387 60.0162C28.5797 57.0742 30.0187 54.1323 31.4538 51.1903C33.1267 50.7881 35.5998 50.0999 38.4896 48.9464C45.5313 46.1326 50.2415 42.4433 53.3653 39.9628C56.1391 37.7563 58.1541 36.1375 60.4011 33.3868C61.4981 32.042 63.3656 29.5516 64.7378 26.4342C65.0917 25.6297 65.4121 24.7778 65.6775 23.8945C66.1847 22.2125 66.3793 20.7573 66.452 20.1539C66.6211 18.7086 66.7784 17.4032 66.4579 15.7726C66.167 14.3016 65.6087 13.154 65.1507 12.3869C65.1762 12.3968 65.2037 12.4126 65.2293 12.4244C67.6355 15.112 69.6544 18.1486 71.2055 21.4514C71.2055 21.4731 71.2114 21.4928 71.2114 21.5145C71.7383 27.3984 68.4572 33.6195 66.8393 36.3228Z" fill="#0C415D"/>
</g>
<defs>
<clipPath id="clip0_37_377">
<rect width="252" height="75" fill="white"/>
</clipPath>
</defs>
</svg>
