<svg width="1005" height="692" viewBox="0 0 1005 692" fill="none" xmlns="http://www.w3.org/2000/svg">
<path d="M274.741 66.405C278.53 63.1147 277.136 56.4999 285.943 55.0262C291.634 54.0837 342.856 54.3064 345.645 55.7459C349.745 57.8709 349.86 67.8102 353.074 71.9402C355.502 75.0591 361.39 76.9441 364.539 80.4914C366.934 83.199 367.393 86.7635 369.049 88.6314C375.462 95.9145 389.912 96.0859 395.374 108.15C399.622 117.507 396.374 117.85 396.259 125.938C396.079 139.013 403.197 134.592 408.757 140.402C411.71 143.486 411.988 150.187 414.399 151.729C416.811 153.271 422.141 148.319 426.865 152.294C429.522 154.522 431.047 164.29 436.902 165.884C439.215 166.518 448.58 164.53 449.728 162.816C452.139 159.235 448.843 149.107 451.27 143.88C455.764 142.15 465.277 131.405 467.999 130.548C476.118 127.977 483.286 134.044 490.732 135.192C496.571 136.083 503.574 133.924 509.052 136.597C513.661 138.842 516.089 147.53 519.271 151.592C525.618 159.715 533.655 160.983 536.853 172.584C538.329 177.931 537.837 187.733 540.461 192.343C541.314 193.851 556.518 202.951 560.241 206.344C579.595 223.995 571.673 231.226 578.316 252.493C582.154 264.746 586.517 260.702 596.259 264.557C604.181 267.694 606.772 268.413 614.743 270.915C618.089 271.961 620.172 277.496 624.88 279.295C634.983 283.151 643.971 269.921 642.085 293.656C640.756 310.364 629.587 321.263 627.75 331.717C626.536 338.674 627.914 346.197 627.159 353.343C625.372 370.446 616.597 379.254 619.598 399.321C620.09 402.628 625.47 417.777 626.995 420.691C629.587 425.643 636.541 430.973 638.083 436.491C639.969 443.225 639.116 452.462 641.248 460.568C648.547 488.347 672.116 491.26 680.513 517.085C683.531 526.356 682.498 539.003 692.273 544.161C698.161 547.263 705.558 545.738 712.988 548.188C722.321 551.29 743.331 568.752 749.285 568.341C755.714 567.878 761.979 558.093 767.753 556.722C775.019 554.991 784.089 557.596 791.617 555.968C796.406 554.94 800.064 550.245 804.262 548.634C812.906 545.343 821.566 546.886 831.095 542.447C838.164 539.157 861.323 517.513 864.62 510.727C866.145 507.574 873.542 491.774 874.018 489.735C877.315 475.391 870.459 464.287 880.414 450.2C882.547 447.167 893.043 436.851 896.094 435.771C902.704 433.44 910.117 435.617 918.22 433.218C928.159 430.27 938.607 416.578 946.086 416.081C954.303 415.532 963.799 425.557 970.705 426.277C983.58 427.614 1001.8 407.17 995.553 445.573C993.978 455.204 986.433 458.803 985.171 463.875C984.383 467.011 986.548 470.901 986.105 474.911C985.515 480.155 980.431 485.056 979.66 490.609C977.823 503.735 988.566 520.649 979.348 533.022C968.867 547.091 962.094 522.175 960.732 522.175C950.383 532.919 949.235 555.334 938.525 565.685C919.466 584.073 883.711 567.741 869.507 594.543C860.159 612.177 883.252 613.668 889.255 627.651C900.572 654.059 854.959 643.04 843.659 647.976C830.8 653.614 835.54 678.788 830.587 682.232C823.452 687.185 796.636 675.651 789.042 670.733C779.775 664.735 770.065 651.214 759.224 650.46C753.434 650.049 748.612 652.226 742.954 652.328C735.753 652.448 728.52 649.501 721.976 650.889C711.43 653.134 699.031 669.996 687.205 671.127L641.773 663.759C628.931 654.025 608.954 642.252 593.471 638.91C585.155 637.111 578.906 642.595 570.509 638.962C567.507 637.659 565.408 633.718 562.456 631.987C547.629 623.247 531.375 614.542 516.482 606.436C509.856 602.82 496.669 602.203 492.372 595.674C491.109 593.738 489.797 585.821 487.386 585.666C486.861 585.632 483.466 588.528 480.727 588.837C468.049 590.293 446.514 581.622 435.902 574.236C433.77 572.762 415.794 557.082 414.924 555.951C409.446 548.874 414.892 545.018 400.835 537.289C386.779 529.561 361.898 521.523 354.075 505.706C347.203 491.825 356.65 493.282 360.504 487.181C363.473 482.486 366.458 472.289 368.984 466.943C370.345 464.047 373.56 461.905 374.462 458.94C377.381 449.429 371.46 451.931 366.852 447.852C357.847 439.867 360.652 425.232 356.978 415.378C351.762 401.377 338.264 392.758 330.26 381.687C325.077 374.524 323.749 366.795 319.484 360.421C311.07 347.859 292.996 344.072 285.09 333.036C279.907 325.804 280.235 317.304 276.184 311.547C266.507 297.786 236.181 297.803 234.377 276.365C233.967 271.446 235.869 267.608 236.017 262.947C236.788 238.835 220.255 246.187 209.742 232.066C204.953 225.623 199.343 202.454 194.177 202.06C191.864 201.888 186.173 204.784 185.173 203.842C184.402 203.105 182.598 189.893 176.972 184.152C171.723 178.788 163.342 179.045 160.472 175.72C157.224 171.95 155.814 156.99 153.223 150.786C151.304 146.194 147.351 142.527 145.481 138.328C136.411 117.918 134.033 102.067 130.949 79.8574C129.375 68.4785 117.139 73.0027 114.925 70.1408C114.203 69.1983 114.564 60.887 113.055 58.385C109.267 57.3568 106.938 61.3496 103.936 61.8295C97.4903 62.8405 86.9278 55.009 82.7618 49.868C79.8259 49.8337 78.481 64.6742 78.5466 67.8273C78.6778 74.4593 81.4333 78.435 81.8105 83.3533C83.1062 100.01 78.481 111.132 91.0281 125.064C97.3099 132.039 108.069 139.202 114.663 148.284C119.206 154.539 121.01 161.377 125.504 167.769C129.555 173.544 137.707 177.64 137.526 185.66C137.346 193.68 130.359 201.254 139.314 208.109C142.611 210.628 147.056 210.148 149.926 214.141C153.091 218.528 151.763 223.275 153.19 227.851C156.47 238.441 167.147 237.173 173.429 247.781C181.236 260.959 175.939 270.83 178.94 281.386C180.482 286.801 191.274 291.805 194.21 297.957C195.046 299.705 199.737 314.665 199.835 316.053C200.311 323.08 193.455 330.174 198.425 338.057C202.542 344.603 205.953 336.395 209.217 335.864C212.694 335.281 214.794 342.016 217.041 344.278C219.632 346.9 222.994 348.219 225.241 351.115C227.767 354.388 229.522 362.426 231.425 364.328C232.983 365.87 236.788 365.767 237.346 366.676C239.133 369.572 236.558 384.292 234.41 387.531C233.754 388.508 214.548 396.836 213.416 397.008C202.624 398.67 204.067 376.958 202.821 371.08C201 362.46 187.83 357.593 181.827 351.938C178.3 348.613 176.086 343.112 172.904 340.713C164.605 334.476 150.598 335.572 145.481 321.469C139.166 304.092 161.144 294.718 142.512 271.498C136.887 264.489 129.194 256.675 122.863 249.237C110.333 234.517 113.105 249.529 102.788 246.324C98.048 244.85 93.9312 234.602 89.3388 231.209C83.3686 226.788 74.5119 225.349 68.0333 219.248C63.6869 215.135 55.847 203.088 54.7973 197.09C53.0587 187.082 61.2759 196.13 64.3757 197.381C71.576 200.277 90.5689 197.073 91.799 187.511C92.3567 183.226 89.6996 177.845 88.9123 173.476C88.5351 171.419 90.0276 168.917 89.6996 167.289C89.3716 165.661 70.2475 144.052 68.0169 142.252C60.751 136.409 48.0563 134.335 43.8903 124.67C39.5439 114.576 41.0201 95.6917 36.6245 84.3472C28.0957 71.5118 25.4715 56.3286 21.0923 42.3964C20.223 39.6202 15.9586 39.5003 15.0401 36.7412C12.6947 29.5952 8.23352 14.0864 8.23352 12.2014C14.7285 12.6983 20.3378 14.5663 27.0788 13.8979C33.8198 13.2296 39.7735 8.60266 46.7278 8.6198C53.682 8.63694 61.4727 14.0693 68.0825 13.9493C73.3473 13.8637 75.3483 9.71655 82.3354 10.7962C92.209 12.3042 101.771 26.0479 109.709 28.5156C121.092 32.0286 125.766 26.5106 139.15 35.4046C154.879 45.858 159.16 54.0837 180.187 59.2761C196.03 63.1833 196.719 60.7156 210.595 58.5049C225.717 56.1058 265.556 74.4593 274.757 66.4735L274.741 66.405Z" stroke="#2DA2E1" stroke-opacity="0.2" stroke-width="10" stroke-miterlimit="10"/>
</svg>
